<mxfile host="app.diagrams.net" modified="2021-04-09T16:35:41.375Z" agent="5.0 (Windows NT 10.0; Win64; x64) AppleWebKit/537.36 (KHTML, like Gecko) Chrome/89.0.4389.114 Safari/537.36" etag="1ZcSr8-DxBZwLdGqpQD3" version="14.5.9" type="github">
  <diagram id="iT-5L45L0EKkXbn3-cYx" name="Page-1">
    <mxGraphModel dx="1422" dy="705" grid="1" gridSize="10" guides="1" tooltips="1" connect="1" arrows="1" fold="1" page="1" pageScale="1" pageWidth="827" pageHeight="1169" math="0" shadow="0">
      <root>
        <mxCell id="0" />
        <mxCell id="1" parent="0" />
        <mxCell id="pGANQEWXW_797j19b3XS-6" style="edgeStyle=orthogonalEdgeStyle;rounded=0;orthogonalLoop=1;jettySize=auto;html=1;exitX=1;exitY=0.5;exitDx=0;exitDy=0;" edge="1" parent="1" source="pGANQEWXW_797j19b3XS-1">
          <mxGeometry relative="1" as="geometry">
            <mxPoint x="650" y="260" as="targetPoint" />
          </mxGeometry>
        </mxCell>
        <mxCell id="pGANQEWXW_797j19b3XS-8" style="edgeStyle=orthogonalEdgeStyle;rounded=0;orthogonalLoop=1;jettySize=auto;html=1;entryX=0;entryY=0.5;entryDx=0;entryDy=0;startArrow=block;startFill=1;endArrow=none;endFill=0;" edge="1" parent="1" target="pGANQEWXW_797j19b3XS-1">
          <mxGeometry relative="1" as="geometry">
            <mxPoint x="310" y="260" as="targetPoint" />
            <mxPoint x="310" y="260" as="sourcePoint" />
            <Array as="points">
              <mxPoint x="350" y="260" />
              <mxPoint x="350" y="260" />
            </Array>
          </mxGeometry>
        </mxCell>
        <mxCell id="pGANQEWXW_797j19b3XS-1" value="" style="shape=parallelogram;perimeter=parallelogramPerimeter;whiteSpace=wrap;html=1;fixedSize=1;dashed=1;" vertex="1" parent="1">
          <mxGeometry x="410" y="230" width="120" height="60" as="geometry" />
        </mxCell>
        <mxCell id="pGANQEWXW_797j19b3XS-2" value="CameraTask" style="text;html=1;align=center;verticalAlign=middle;resizable=0;points=[];autosize=1;strokeColor=none;" vertex="1" parent="1">
          <mxGeometry x="440" y="200" width="80" height="20" as="geometry" />
        </mxCell>
        <mxCell id="pGANQEWXW_797j19b3XS-3" value="" style="html=1;shadow=0;dashed=0;align=center;verticalAlign=middle;shape=mxgraph.arrows2.arrow;dy=0;dx=16;notch=10;rotation=-90;" vertex="1" parent="1">
          <mxGeometry x="414" y="280" width="40" height="35" as="geometry" />
        </mxCell>
        <mxCell id="pGANQEWXW_797j19b3XS-4" value="Monitor" style="text;html=1;align=center;verticalAlign=middle;resizable=0;points=[];autosize=1;strokeColor=none;" vertex="1" parent="1">
          <mxGeometry x="404" y="320" width="60" height="20" as="geometry" />
        </mxCell>
        <mxCell id="pGANQEWXW_797j19b3XS-5" value="100" style="ellipse;whiteSpace=wrap;html=1;dashed=1;" vertex="1" parent="1">
          <mxGeometry x="404" y="220" width="50" height="30" as="geometry" />
        </mxCell>
        <mxCell id="pGANQEWXW_797j19b3XS-7" value="Image" style="text;html=1;align=center;verticalAlign=middle;resizable=0;points=[];autosize=1;strokeColor=none;" vertex="1" parent="1">
          <mxGeometry x="555" y="240" width="50" height="20" as="geometry" />
        </mxCell>
        <mxCell id="pGANQEWXW_797j19b3XS-9" value="Camera.Grab()" style="text;html=1;align=center;verticalAlign=middle;resizable=0;points=[];autosize=1;strokeColor=none;" vertex="1" parent="1">
          <mxGeometry x="310" y="240" width="100" height="20" as="geometry" />
        </mxCell>
        <mxCell id="pGANQEWXW_797j19b3XS-10" value="Camera" style="rounded=0;whiteSpace=wrap;html=1;" vertex="1" parent="1">
          <mxGeometry x="190" y="230" width="120" height="60" as="geometry" />
        </mxCell>
        <mxCell id="pGANQEWXW_797j19b3XS-11" style="edgeStyle=orthogonalEdgeStyle;rounded=0;orthogonalLoop=1;jettySize=auto;html=1;exitX=1;exitY=0.5;exitDx=0;exitDy=0;entryX=0;entryY=0.75;entryDx=0;entryDy=0;" edge="1" parent="1" target="pGANQEWXW_797j19b3XS-1">
          <mxGeometry relative="1" as="geometry">
            <mxPoint x="410" y="279" as="targetPoint" />
            <mxPoint x="310" y="279" as="sourcePoint" />
            <Array as="points">
              <mxPoint x="310" y="274" />
            </Array>
          </mxGeometry>
        </mxCell>
        <mxCell id="pGANQEWXW_797j19b3XS-12" value="Image" style="text;html=1;align=center;verticalAlign=middle;resizable=0;points=[];autosize=1;strokeColor=none;" vertex="1" parent="1">
          <mxGeometry x="335" y="280" width="50" height="20" as="geometry" />
        </mxCell>
        <mxCell id="pGANQEWXW_797j19b3XS-14" value="" style="endArrow=classic;html=1;entryX=0;entryY=0.25;entryDx=0;entryDy=0;" edge="1" parent="1" target="pGANQEWXW_797j19b3XS-10">
          <mxGeometry width="50" height="50" relative="1" as="geometry">
            <mxPoint x="70" y="245" as="sourcePoint" />
            <mxPoint x="440" y="340" as="targetPoint" />
          </mxGeometry>
        </mxCell>
        <mxCell id="pGANQEWXW_797j19b3XS-15" value="Open / Close" style="text;html=1;align=center;verticalAlign=middle;resizable=0;points=[];autosize=1;strokeColor=none;" vertex="1" parent="1">
          <mxGeometry x="80" y="220" width="90" height="20" as="geometry" />
        </mxCell>
        <mxCell id="pGANQEWXW_797j19b3XS-19" value="" style="endArrow=classic;html=1;entryX=0.65;entryY=0.983;entryDx=0;entryDy=0;entryPerimeter=0;" edge="1" parent="1" target="pGANQEWXW_797j19b3XS-1">
          <mxGeometry width="50" height="50" relative="1" as="geometry">
            <mxPoint x="488" y="400" as="sourcePoint" />
            <mxPoint x="440" y="340" as="targetPoint" />
          </mxGeometry>
        </mxCell>
        <mxCell id="pGANQEWXW_797j19b3XS-20" value="resume / suspend" style="text;html=1;align=center;verticalAlign=middle;resizable=0;points=[];autosize=1;strokeColor=none;" vertex="1" parent="1">
          <mxGeometry x="490" y="340" width="110" height="20" as="geometry" />
        </mxCell>
        <mxCell id="pGANQEWXW_797j19b3XS-21" value="" style="rounded=0;whiteSpace=wrap;html=1;fillColor=none;dashed=1;" vertex="1" parent="1">
          <mxGeometry x="334" y="150" width="306" height="150" as="geometry" />
        </mxCell>
      </root>
    </mxGraphModel>
  </diagram>
</mxfile>
